<?xml version="1.0" encoding="UTF-8"?>
<svg version="1.1" xmlns="http://www.w3.org/2000/svg" width="360" height="360">
<path d="M0 0 C1.6886009 -0.00435751 3.37719983 -0.00954408 5.0657959 -0.01548767 C9.61563182 -0.02877881 14.16538418 -0.02946734 18.71523571 -0.02692437 C22.53175647 -0.02584768 26.34826079 -0.03075587 30.16477799 -0.03552979 C39.17952618 -0.04659131 48.1942327 -0.04708167 57.20898438 -0.04101562 C66.46627953 -0.0349815 75.72342247 -0.04728035 84.98069167 -0.06858569 C92.9667258 -0.08628019 100.95271183 -0.09219066 108.93876481 -0.08894795 C113.69159736 -0.08714705 118.44432137 -0.08965047 123.19713593 -0.10366249 C127.6723103 -0.11636441 132.14724992 -0.11418171 136.62242126 -0.1012516 C138.25042556 -0.09891272 139.87844703 -0.10152198 141.50643158 -0.10987473 C169.37036214 -0.24235605 193.80108887 7.40006058 214.82128906 26.2746582 C215.51609375 26.88696289 216.21089844 27.49926758 216.92675781 28.13012695 C233.75020108 43.87901896 244.85062477 67.71086723 245.93492126 90.68198776 C246.12691305 97.57501785 246.10167718 104.46942869 246.08691406 111.36450195 C246.08826429 113.59924868 246.09020779 115.83399512 246.0927124 118.06874084 C246.09564743 122.73433246 246.09141885 127.39984708 246.08203125 132.06542969 C246.07064445 138.01065938 246.07720177 143.95570829 246.08917618 149.90093136 C246.09644439 154.51063876 246.09408407 159.12030415 246.08892059 163.73001289 C246.08759744 165.92060938 246.08918437 168.11120983 246.0938797 170.30180168 C246.14315936 199.75049566 240.77493778 224.71661758 220.82128906 247.2746582 C220.01304687 248.40967773 220.01304687 248.40967773 219.18847656 249.56762695 C218.51171875 250.41260742 218.51171875 250.41260742 217.82128906 251.2746582 C217.16128906 251.2746582 216.50128906 251.2746582 215.82128906 251.2746582 C215.82128906 251.9346582 215.82128906 252.5946582 215.82128906 253.2746582 C184.87022172 281.56586819 149.18339932 282.44085489 109.33668327 282.35162735 C105.00083862 282.34304838 100.66507896 282.34876391 96.32923889 282.3576355 C95.59012943 282.3591065 94.85101996 282.36057751 94.08951324 282.36209309 C92.58139218 282.36516192 91.07327123 282.3682819 89.56515038 282.37145209 C79.50890715 282.39247573 69.45296069 282.40617759 59.39672852 282.37426758 C52.55685866 282.35266821 45.71749402 282.35596712 38.877657 282.38767612 C35.27784509 282.40341426 31.6790023 282.40701297 28.07923698 282.37991714 C24.07191223 282.34999486 20.06665799 282.37501086 16.05932617 282.40405273 C14.8918132 282.3866655 13.72430023 282.36927826 12.52140808 282.35136414 C3.69492027 282.48386681 -1.99334541 285.2891377 -9.17871094 290.2746582 C-10.06712708 290.88324739 -10.95554323 291.49183659 -11.87088108 292.11886787 C-13.46361645 293.22468385 -15.04772381 294.34299645 -16.62451172 295.47143555 C-21.36196731 298.81600131 -26.25014345 301.93409707 -31.11621094 305.0871582 C-33.14621263 306.40608586 -35.17616294 307.72509259 -37.20605469 309.04418945 C-38.090271 309.61758057 -38.9744873 310.19097168 -39.88549805 310.78173828 C-41.65709209 311.93507562 -43.41980848 313.10205656 -45.17871094 314.2746582 C-50.12643744 315.0125452 -55.48952073 315.37794614 -59.74121094 312.3996582 C-64.62408885 306.13955831 -64.32862009 298.92511497 -63.91699219 291.24731445 C-62.13841001 275.35961591 -62.13841001 275.35961591 -66.71386719 260.95825195 C-69.82996614 258.0861248 -73.44650701 256.24028561 -77.17871094 254.2746582 C-95.99473125 238.77591314 -106.244883 214.51107087 -108.71582031 190.69555664 C-109.4585886 182.15436347 -109.34318212 173.58722455 -109.34667969 165.02075195 C-109.34990158 163.15145341 -109.35326632 161.2821551 -109.35676575 159.41285706 C-109.36272769 155.50537534 -109.36460878 151.59791563 -109.36401367 147.69042969 C-109.36391244 142.73426429 -109.37753757 137.77824339 -109.39478588 132.82211208 C-109.40602103 128.96199421 -109.40792935 125.10190995 -109.40740395 121.24177742 C-109.40856785 119.41732348 -109.41289775 117.59286819 -109.42073631 115.76843071 C-109.54814703 83.04152415 -103.74244008 53.22132949 -80.07324219 29.0480957 C-57.89015519 7.35561798 -30.36380967 -0.05233922 0 0 Z " fill="#168988" transform="translate(111.1787109375,34.725341796875)"/>
<path d="M0 0 C10.31491399 14.42517159 8.94939861 38.39122785 6.33984375 54.96875 C3.24688985 70.33697643 -6.54056096 86.68917928 -19.69140625 95.6328125 C-27.24531716 100.1063638 -34.04024357 103.9020686 -42.875 105 C-45.95455979 105.59193485 -48.14786229 106.02622277 -50.25878906 108.43847656 C-52.68506314 112.12813595 -54.4689522 116.10054679 -56.19628906 120.15429688 C-57.28023148 122.64354495 -58.55256366 125.00531639 -59.875 127.375 C-60.24367187 128.06335938 -60.61234375 128.75171875 -60.9921875 129.4609375 C-62 131 -62 131 -64 132 C-67.8612692 132.35752493 -70.16724804 132.52046997 -73.5 130.4375 C-75.16957843 127.72443506 -75.39311486 126.15812113 -74.7421875 123.04296875 C-73.50190768 119.62893536 -71.56128659 116.68344812 -69.63671875 113.6171875 C-64.7020095 106.05686192 -64.7020095 106.05686192 -63 97.4375 C-64.00053319 93.99816716 -65.13254997 90.62720887 -66.30078125 87.2421875 C-67.35682802 83.85575819 -67.78737127 80.5208817 -68 77 C-68.06445312 76.14019531 -68.12890625 75.28039062 -68.1953125 74.39453125 C-68.9762217 55.10607401 -60.64434923 39.08372348 -48 25 C-47.39800781 24.30390625 -46.79601562 23.6078125 -46.17578125 22.890625 C-37.06479874 13.00886522 -13.8983074 -4.63276913 0 0 Z " fill="#00384C" transform="translate(303,114)"/>
<path d="M0 0 C20.04954315 13.11682774 31.6584387 44.75883549 36.375 67.0625 C37.61376571 73.34310505 38.76340141 79.59212142 39 86 C39.0515625 87.12664062 39.103125 88.25328125 39.15625 89.4140625 C39.8633104 118.8159908 31.76086415 149.30792475 14 173 C13.58008789 173.56895996 13.16017578 174.13791992 12.72753906 174.72412109 C11.39081714 176.53214185 10.04287455 178.33092576 8.6875 180.125 C8.26670166 180.68243896 7.84590332 181.23987793 7.41235352 181.81420898 C2.86002534 187.70044536 2.86002534 187.70044536 -1.0859375 188.3359375 C-4.93211019 188.40157185 -7.48452922 188.24699641 -11 186.5625 C-13.83941595 182.92449832 -14.34341837 179.5793807 -14 175 C-12.66110189 172.0791945 -10.72612823 169.84836618 -8.625 167.4375 C-7.50318086 166.04616784 -6.3887233 164.6488718 -5.28125 163.24609375 C-4.724375 162.54210449 -4.1675 161.83811523 -3.59375 161.11279297 C4.07818109 150.94231324 9.21748872 139.09120413 13 127 C13.21027832 126.36030273 13.42055664 125.72060547 13.63720703 125.06152344 C20.22892712 104.27907736 19.50486532 78.37894292 12 58 C11.56106978 56.70707475 11.12226527 55.4141068 10.68359375 54.12109375 C5.77901131 40.72082436 -1.28671094 28.029609 -11.28515625 17.78515625 C-14.21173772 14.73857827 -14.33106189 12.22930775 -14.29296875 8.0390625 C-13.83745033 4.86865433 -12.24684343 3.1807598 -10 1 C-6.85154494 -0.57422753 -3.40781928 -0.66928343 0 0 Z " fill="#00384C" transform="translate(176,88)"/>
<path d="M0 0 C5.28770117 2.89854989 8.17456927 6.41045273 11.4375 11.3125 C11.91123047 12.01383057 12.38496094 12.71516113 12.87304688 13.43774414 C26.85340264 34.66268223 32.25053093 59.78420365 27.1640625 85.015625 C26.11282807 89.15210587 24.6556053 93.071346 23 97 C22.71060547 97.71188477 22.42121094 98.42376953 22.12304688 99.15722656 C17.3818536 110.62769309 11.45632929 122.7289321 1 130 C-3.99008444 130.62376056 -7.00776889 130.07972115 -11 127 C-13.3169612 123.52455821 -13.71754141 121.68504986 -13.64453125 117.58984375 C-12.52364787 113.08593055 -9.39799535 110.15517341 -6.3828125 106.73828125 C5.50914122 93.07228198 8.83013957 75.62450157 8 58 C6.19808135 42.39857778 -1.29582517 29.02633253 -11 17 C-13.4716618 13.75594388 -13.98912398 12.60905738 -14.0625 8.5 C-11.92647856 1.46369408 -7.11490865 -1.14346746 0 0 Z " fill="#00384C" transform="translate(144,117)"/>
<path d="M0 0 C5.0771371 1.1452867 7.247517 4.0879845 10.015625 8.18359375 C18.19268228 21.56733677 20.40557946 34.37794692 17.13671875 49.80859375 C14.71572318 58.12718041 10.57439931 66.62441485 3.19921875 71.49609375 C0.12189266 72.21273133 -2.69907598 72.06923494 -5.80078125 71.49609375 C-8.67107994 69.70215707 -10.29209763 68.51346099 -11.80078125 65.49609375 C-12.27997434 62.07328596 -12.48366406 59.55931635 -10.56640625 56.57421875 C-9.49181909 55.24428415 -8.41490159 53.91622986 -7.3359375 52.58984375 C-2.79096455 46.39110202 -1.95135718 38.97574458 -2.80078125 31.49609375 C-3.83890081 26.28819394 -5.61364894 22.52623293 -8.98828125 18.43359375 C-11.14556503 15.72080939 -12.27624481 13.86306894 -12.48828125 10.37109375 C-11.18911412 3.04851539 -7.71354444 -0.62473335 0 0 Z " fill="#00384C" transform="translate(112.80078125,145.50390625)"/>
<path d="M0 0 C1.39846331 2.79692663 0.56083997 3.97745691 -0.40625 6.91796875 C-0.89810791 8.41710815 -0.89810791 8.41710815 -1.39990234 9.9465332 C-1.76293457 11.01605225 -2.1259668 12.08557129 -2.5 13.1875 C-3.05421631 14.82755005 -3.05421631 14.82755005 -3.61962891 16.50073242 C-6.54322661 24.98744365 -9.89120942 33.01392834 -14 41 C-14.37914551 41.75651855 -14.75829102 42.51303711 -15.14892578 43.29248047 C-27.67413584 68.27826075 -27.67413584 68.27826075 -36 74 C-33.48270975 48.6534913 -18.04593145 18.04593145 0 0 Z " fill="#168887" transform="translate(288,136)"/>
<path d="M0 0 C0.66 0 1.32 0 2 0 C2 33 2 66 2 100 C1.34 100 0.68 100 0 100 C0.00222061 99.22342545 0.00444122 98.44685089 0.00672913 97.64674377 C0.02694825 90.24981949 0.04208265 82.85290901 0.05181217 75.45596409 C0.05698268 71.65511945 0.06397125 67.85429806 0.07543945 64.0534668 C0.17345154 42.63367576 0.17345154 42.63367576 -0.80639648 21.24243164 C-1.07333261 16.77184068 -0.91172266 12.39711352 -0.5625 7.9375 C-0.51029297 7.15568359 -0.45808594 6.37386719 -0.40429688 5.56835938 C-0.27899253 3.71157687 -0.14107289 1.85565107 0 0 Z " fill="#067978" transform="translate(355,125)"/>
<path d="M0 0 C3.41158256 1.13719419 4.11854601 2.04342944 6 5 C6 5.66 6 6.32 6 7 C6.99 7.33 7.98 7.66 9 8 C9 8.66 9 9.32 9 10 C9.99 10.33 10.98 10.66 12 11 C13.84499398 12.87617698 15.3683599 14.92737609 17 17 C16.67 17.66 16.34 18.32 16 19 C13.6958874 16.78340239 11.4091166 14.5496827 9.125 12.3125 C8.14853516 11.37374023 8.14853516 11.37374023 7.15234375 10.41601562 C3.85718872 7.1718166 1.24747132 4.59455987 0 0 Z " fill="#0E7877" transform="translate(22,274)"/>
<path d="M0 0 C3.59584747 1.44930671 5.18832656 3.22752078 7.3125 6.4375 C7.84488281 7.21996094 8.37726563 8.00242187 8.92578125 8.80859375 C10 11 10 11 9 14 C7.49717827 11.85609361 5.99764203 9.71001973 4.5 7.5625 C4.07074219 6.95083984 3.64148438 6.33917969 3.19921875 5.70898438 C0 1.11328125 0 1.11328125 0 0 Z " fill="#158081" transform="translate(333,71)"/>
<path d="M0 0 C0.99 0 1.98 0 3 0 C4.625 2 4.625 2 6 4 C6.33 4 6.66 4 7 4 C7.33 6.31 7.66 8.62 8 11 C4.32966073 7.72291137 2.30718811 4.28477792 0 0 Z " fill="#107877" transform="translate(14,263)"/>
<path d="M0 0 C0.33 0 0.66 0 1 0 C1.0272415 1.41655793 1.04650467 2.83327045 1.0625 4.25 C1.07410156 5.03890625 1.08570313 5.8278125 1.09765625 6.640625 C1.00385306 8.90691002 0.63241063 10.8288895 0 13 C-0.66 13 -1.32 13 -2 13 C-2.23509196 8.18061476 -1.45184478 4.53701494 0 0 Z " fill="#10817E" transform="translate(355,225)"/>
<path d="M0 0 C1.98 0.495 1.98 0.495 4 1 C4.33 2.32 4.66 3.64 5 5 C4.01 4.67 3.02 4.34 2 4 C1.67 4.99 1.34 5.98 1 7 C0.34 7 -0.32 7 -1 7 C-0.67 4.69 -0.34 2.38 0 0 Z " fill="#0D817F" transform="translate(7,103)"/>
<path d="M0 0 C1.15518918 0.90484792 2.29885406 1.8244206 3.4375 2.75 C4.07558594 3.26046875 4.71367187 3.7709375 5.37109375 4.296875 C7.18810554 6.19667629 7.60423197 7.43586908 8 10 C7.34 9.67 6.68 9.34 6 9 C6 8.34 6 7.68 6 7 C5.01 6.67 4.02 6.34 3 6 C1.3125 4.625 1.3125 4.625 0 3 C0 2.01 0 1.02 0 0 Z " fill="#1C8281" transform="translate(323,59)"/>
</svg>
